<svg width="111" height="44" viewBox="0 0 111 44" fill="none" xmlns="http://www.w3.org/2000/svg">
<path d="M18.0682 0.419998C18.8682 0.419998 19.5242 0.579998 20.0362 0.899998C20.5802 1.188 21.0282 1.588 21.3802 2.1C21.7322 2.58 22.0202 3.14 22.2442 3.78C22.4682 4.42 22.6602 5.076 22.8202 5.748C24.1002 10.932 25.1562 15.204 25.9882 18.564C26.8202 21.924 27.4762 24.644 27.9562 26.724C28.4362 28.772 28.7722 30.292 28.9642 31.284C29.1562 32.276 29.2522 32.964 29.2522 33.348C29.2522 33.796 29.1402 34.1 28.9162 34.26C28.7242 34.42 28.4042 34.5 27.9562 34.5H25.5082C24.1322 34.5 23.0282 34.34 22.1962 34.02C21.3962 33.668 20.7722 33.172 20.3242 32.532C19.9082 31.892 19.6042 31.124 19.4122 30.228C19.2202 29.3 19.0602 28.26 18.9322 27.108H10.5802L8.99618 33.732C8.83618 34.244 8.46818 34.5 7.89218 34.5H5.34818C4.83618 34.5 4.30818 34.452 3.76418 34.356C3.22018 34.228 2.72418 34.036 2.27618 33.78C1.86018 33.524 1.50818 33.204 1.22018 32.82C0.932183 32.404 0.788183 31.908 0.788183 31.332C0.788183 30.628 1.01218 29.476 1.46018 27.876C1.90818 26.276 2.46818 24.468 3.14018 22.452C3.84418 20.404 4.61218 18.276 5.44418 16.068C6.30818 13.828 7.14018 11.716 7.94018 9.732C8.74018 7.748 9.46018 6.004 10.1002 4.5C10.7722 2.996 11.2842 1.94 11.6362 1.332C11.8922 0.883998 12.1162 0.627998 12.3082 0.563999C12.5322 0.467999 12.9322 0.419998 13.5082 0.419998H18.0682ZM12.3082 20.148H17.8282L15.8122 7.476L12.3082 20.148ZM48.9449 7.62C51.9529 7.62 54.2089 8.548 55.7129 10.404C57.2489 12.26 58.0169 15.188 58.0169 19.188C58.0169 21.684 57.7289 23.908 57.1529 25.86C56.5769 27.812 55.7769 29.476 54.7529 30.852C53.7289 32.196 52.5289 33.22 51.1529 33.924C49.7769 34.628 48.2889 34.98 46.6889 34.98C44.9929 34.98 43.6649 34.612 42.7049 33.876C41.7449 33.14 40.9929 32.1 40.4489 30.756C40.3529 31.908 40.2729 32.788 40.2089 33.396C40.1449 34.004 40.0969 34.484 40.0649 34.836C40.0329 35.22 40.0009 35.556 39.9689 35.844C39.9689 36.132 39.9369 36.516 39.8729 36.996C39.8409 37.476 39.7929 38.132 39.7289 38.964C39.6649 39.796 39.5689 40.948 39.4409 42.42C39.4089 42.804 39.3289 43.06 39.2009 43.188C39.0729 43.316 38.8009 43.38 38.3849 43.38H36.6569C35.6649 43.38 34.8489 43.268 34.2089 43.044C33.6009 42.852 33.1049 42.564 32.7209 42.18C32.3689 41.796 32.1129 41.316 31.9529 40.74C31.8249 40.196 31.7609 39.556 31.7609 38.82C31.7609 38.5 31.8089 37.636 31.9049 36.228C32.0009 34.82 32.1129 33.14 32.2409 31.188C32.4009 29.204 32.5609 27.076 32.7209 24.804C32.9129 22.532 33.0889 20.372 33.2489 18.324C33.4089 16.244 33.5369 14.404 33.6329 12.804C33.7609 11.204 33.8569 10.1 33.9209 9.492C33.9529 8.788 34.0329 8.372 34.1609 8.244C34.2569 8.148 34.5129 8.1 34.9289 8.1H36.8009C38.5289 8.1 39.7769 8.468 40.5449 9.204C41.3449 9.908 41.7449 10.756 41.7449 11.748C42.4809 10.276 43.4249 9.22 44.5769 8.58C45.7609 7.94 47.2169 7.62 48.9449 7.62ZM45.4409 14.004C43.8089 14.004 42.6089 14.708 41.8409 16.116C41.0729 17.524 40.6889 19.444 40.6889 21.876C40.6889 22.708 40.7369 23.524 40.8329 24.324C40.9609 25.124 41.1689 25.844 41.4569 26.484C41.7449 27.124 42.1289 27.636 42.6089 28.02C43.1209 28.404 43.7609 28.596 44.5289 28.596C45.9049 28.596 47.0569 27.924 47.9849 26.58C48.9129 25.236 49.3769 23.124 49.3769 20.244C49.3769 19.444 49.3129 18.676 49.1849 17.94C49.0889 17.172 48.8969 16.5 48.6089 15.924C48.3209 15.348 47.9209 14.884 47.4089 14.532C46.8969 14.18 46.2409 14.004 45.4409 14.004ZM72.9656 34.98C71.5576 34.98 70.1496 34.804 68.7416 34.452C67.3656 34.1 66.1176 33.492 64.9976 32.628C63.9096 31.764 63.0136 30.612 62.3096 29.172C61.6056 27.732 61.2536 25.924 61.2536 23.748C61.2536 22.948 61.3176 21.988 61.4456 20.868C61.5736 19.748 61.8136 18.596 62.1656 17.412C62.5496 16.228 63.0616 15.06 63.7016 13.908C64.3736 12.724 65.2376 11.668 66.2936 10.74C67.3496 9.812 68.6296 9.06 70.1336 8.484C71.6376 7.908 73.4296 7.62 75.5096 7.62C77.1736 7.62 78.5816 7.812 79.7336 8.196C80.8856 8.58 81.8136 9.108 82.5176 9.78C83.2216 10.42 83.7336 11.172 84.0536 12.036C84.3736 12.9 84.5336 13.828 84.5336 14.82C84.5336 16.292 84.2296 17.54 83.6216 18.564C83.0456 19.588 82.2776 20.452 81.3176 21.156C80.3896 21.828 79.3496 22.356 78.1976 22.74C77.0456 23.124 75.9096 23.428 74.7896 23.652C73.6696 23.844 72.6296 23.972 71.6696 24.036C70.7416 24.068 70.0216 24.084 69.5096 24.084C69.5096 24.692 69.5896 25.3 69.7496 25.908C69.9416 26.484 70.2136 26.996 70.5656 27.444C70.9176 27.892 71.3816 28.26 71.9576 28.548C72.5336 28.836 73.2376 28.98 74.0696 28.98C74.9016 28.98 75.5416 28.852 75.9896 28.596C76.4696 28.308 76.8536 28.004 77.1416 27.684C77.4296 27.332 77.6696 27.028 77.8616 26.772C78.0856 26.484 78.3736 26.34 78.7256 26.34C78.8856 26.34 79.1576 26.388 79.5416 26.484C79.9576 26.548 80.3736 26.708 80.7896 26.964C81.2056 27.22 81.5736 27.572 81.8936 28.02C82.2136 28.468 82.3736 29.044 82.3736 29.748C82.3736 30.676 82.0856 31.476 81.5096 32.148C80.9336 32.82 80.1816 33.364 79.2536 33.78C78.3576 34.196 77.3496 34.5 76.2296 34.692C75.1096 34.884 74.0216 34.98 72.9656 34.98ZM73.8776 14.004C73.1736 14.004 72.5656 14.212 72.0536 14.628C71.5736 15.012 71.1576 15.508 70.8056 16.116C70.4856 16.724 70.2296 17.396 70.0376 18.132C69.8776 18.868 69.7496 19.572 69.6536 20.244C71.6376 20.212 73.2376 19.876 74.4536 19.236C75.7016 18.596 76.3256 17.684 76.3256 16.5C76.3256 15.86 76.1176 15.284 75.7016 14.772C75.3176 14.26 74.7096 14.004 73.8776 14.004ZM100.203 16.788C100.875 15.924 101.531 14.964 102.171 13.908C102.811 12.82 103.403 11.828 103.947 10.932C104.523 10.004 105.035 9.236 105.483 8.628C105.931 7.988 106.299 7.668 106.587 7.668C106.811 7.668 107.131 7.844 107.547 8.196C107.995 8.548 108.427 8.996 108.843 9.54C109.291 10.084 109.675 10.708 109.995 11.412C110.315 12.084 110.475 12.756 110.475 13.428C110.475 14.804 109.787 16.132 108.411 17.412C107.035 18.66 105.243 20.052 103.035 21.588C104.411 23.636 105.579 25.38 106.539 26.82C107.499 28.26 108.283 29.46 108.891 30.42C109.531 31.348 109.995 32.068 110.283 32.58C110.571 33.092 110.715 33.444 110.715 33.636C110.715 33.86 110.587 34.068 110.331 34.26C110.075 34.42 109.723 34.5 109.275 34.5H106.011C104.347 34.5 102.987 34.1 101.931 33.3C100.875 32.5 99.9789 31.332 99.2429 29.796L97.3229 25.956C96.1069 27.332 95.0989 28.58 94.2989 29.7C93.5309 30.82 92.8909 31.78 92.3789 32.58C91.8669 33.348 91.4509 33.956 91.1309 34.404C90.8109 34.82 90.4909 35.028 90.1709 35.028C89.9469 35.028 89.5949 34.916 89.1149 34.692C88.6669 34.468 88.2029 34.148 87.7229 33.732C87.2429 33.284 86.8269 32.756 86.4749 32.148C86.1229 31.508 85.9469 30.772 85.9469 29.94C85.9469 29.236 86.1069 28.564 86.4269 27.924C86.7469 27.252 87.2429 26.596 87.9149 25.956C88.6189 25.284 89.4989 24.58 90.5549 23.844C91.6109 23.108 92.8909 22.292 94.3949 21.396C93.3389 19.508 92.3629 17.86 91.4669 16.452C90.6029 15.044 89.8509 13.86 89.2109 12.9C88.6029 11.908 88.1229 11.108 87.7709 10.5C87.4189 9.892 87.2429 9.428 87.2429 9.108C87.2429 8.788 87.4509 8.548 87.8669 8.388C88.3149 8.196 89.1149 8.1 90.2669 8.1C91.5149 8.1 92.5549 8.212 93.3869 8.436C94.2189 8.628 94.9229 8.916 95.4989 9.3C96.0749 9.684 96.5389 10.148 96.8909 10.692C97.2749 11.236 97.6429 11.844 97.9949 12.516L100.203 16.788Z" fill="#004D3B"/>
</svg>
